# xmcd
#
# Track frame offsets: 
#        150
#        22761
#        57988
#        79603
#        182302
#        212868
#
# Disc length: 3212 seconds
#
# Revision: 0
# Processed by: cddbd v1.5.2PL0 Copyright (c) Steve Scherf et al.
# Submitted via: ExactAudioCopy v0.99pb5
#
DISCID=3f0c8a06
DTITLE=Led Zeppelin - Maxell is Pleased to Present: The Complete BBC S
DTITLE=essions Disc 4
DYEAR=2006
DGENRE=Blues
TTITLE0=01. Going to California (04-01-71 Sunday in Concert)
TTITLE1=02. That's the Way (04-01-71 Sunday in Concert)
TTITLE2=03. What is and What Should Never Be (04-01-71 Sunday in Conce
TTITLE2=rt)
TTITLE3=04. Whole Lotta Love Medley (04-01-71 Sunday in Concert)
TTITLE4=05. Thank You (04-01-71 Sunday in Concert)
TTITLE5=06. Communication Breakdown (04-01-71 Sunday in Concert)
EXTD=
EXTT0=
EXTT1=
EXTT2=
EXTT3=
EXTT4=
EXTT5=
PLAYORDER=
